<svg width="20" height="23" viewBox="0 0 20 23" fill="none" xmlns="http://www.w3.org/2000/svg">
<path d="M17.1 8.2C18.9 10 18.9 12.8 17.1 14.7L18.1 15.7C20.6 13.4 20.6 9.6 18.1 7.2L17.1 8.2ZM16 9.3L15 10.3C15.5 11 15.5 11.9 15 12.6L16 13.6C17.2 12.4 17.2 10.6 16 9.3ZM12 0.5H2C1.46957 0.5 0.960859 0.710714 0.585786 1.08579C0.210714 1.46086 0 1.96957 0 2.5V20.5C0 21.0304 0.210714 21.5391 0.585786 21.9142C0.960859 22.2893 1.46957 22.5 2 22.5H12C12.5304 22.5 13.0391 22.2893 13.4142 21.9142C13.7893 21.5391 14 21.0304 14 20.5V2.5C14 1.96957 13.7893 1.46086 13.4142 1.08579C13.0391 0.710714 12.5304 0.5 12 0.5ZM12 19.5H2V3.5H12V19.5Z" fill="#5222D0"/>
</svg>
